<mxfile host="app.diagrams.net" modified="2021-12-29T13:55:09.296Z" agent="5.0 (Windows NT 10.0; Win64; x64) AppleWebKit/537.36 (KHTML, like Gecko) Chrome/96.0.4664.110 Safari/537.36" etag="f-ozxVk5CfQATkj_iqFr" version="16.1.0" type="github" pages="4">
  <diagram id="piDafpqhtRUU5qUU-vj8" name="App Tree">
    <mxGraphModel dx="1422" dy="754" grid="1" gridSize="10" guides="1" tooltips="1" connect="1" arrows="1" fold="1" page="1" pageScale="1" pageWidth="827" pageHeight="1169" math="0" shadow="0">
      <root>
        <mxCell id="0" />
        <mxCell id="1" parent="0" />
        <mxCell id="cU6pWU8BuP6V0g1TmE-s-1" style="edgeStyle=orthogonalEdgeStyle;rounded=0;html=1;exitX=0.5;exitY=1;jettySize=auto;orthogonalLoop=1;fontSize=28;strokeWidth=2;strokeColor=#788AA3;fontColor=#46495D;" edge="1" parent="1" target="cU6pWU8BuP6V0g1TmE-s-6">
          <mxGeometry relative="1" as="geometry">
            <mxPoint x="745" y="420" as="sourcePoint" />
          </mxGeometry>
        </mxCell>
        <mxCell id="cU6pWU8BuP6V0g1TmE-s-2" style="edgeStyle=orthogonalEdgeStyle;rounded=0;html=1;exitX=0.5;exitY=1;jettySize=auto;orthogonalLoop=1;strokeWidth=2;fontSize=28;strokeColor=#788AA3;fontColor=#46495D;" edge="1" parent="1" target="cU6pWU8BuP6V0g1TmE-s-5">
          <mxGeometry relative="1" as="geometry">
            <mxPoint x="745" y="420" as="sourcePoint" />
          </mxGeometry>
        </mxCell>
        <mxCell id="cU6pWU8BuP6V0g1TmE-s-3" style="edgeStyle=orthogonalEdgeStyle;rounded=0;html=1;exitX=0.5;exitY=1;jettySize=auto;orthogonalLoop=1;strokeWidth=2;fontSize=28;strokeColor=#788AA3;fontColor=#46495D;" edge="1" parent="1" target="cU6pWU8BuP6V0g1TmE-s-7">
          <mxGeometry relative="1" as="geometry">
            <mxPoint x="745" y="420" as="sourcePoint" />
          </mxGeometry>
        </mxCell>
        <mxCell id="cU6pWU8BuP6V0g1TmE-s-10" value="" style="edgeStyle=elbowEdgeStyle;rounded=0;orthogonalLoop=1;jettySize=auto;html=1;shape=link;strokeColor=#788AA3;fontColor=#46495D;" edge="1" parent="1" source="cU6pWU8BuP6V0g1TmE-s-4" target="cU6pWU8BuP6V0g1TmE-s-9">
          <mxGeometry relative="1" as="geometry" />
        </mxCell>
        <mxCell id="cU6pWU8BuP6V0g1TmE-s-12" value="" style="edgeStyle=elbowEdgeStyle;rounded=0;orthogonalLoop=1;jettySize=auto;html=1;strokeColor=#788AA3;fontColor=#46495D;" edge="1" parent="1" source="cU6pWU8BuP6V0g1TmE-s-4">
          <mxGeometry relative="1" as="geometry">
            <mxPoint x="745" y="420" as="targetPoint" />
          </mxGeometry>
        </mxCell>
        <mxCell id="cU6pWU8BuP6V0g1TmE-s-14" style="rounded=0;orthogonalLoop=1;jettySize=auto;html=1;entryX=1;entryY=0.5;entryDx=0;entryDy=0;edgeStyle=orthogonalEdgeStyle;shape=flexArrow;strokeColor=#788AA3;fontColor=#46495D;" edge="1" parent="1" source="cU6pWU8BuP6V0g1TmE-s-4" target="cU6pWU8BuP6V0g1TmE-s-13">
          <mxGeometry relative="1" as="geometry" />
        </mxCell>
        <mxCell id="cU6pWU8BuP6V0g1TmE-s-4" value="App Component" style="rounded=0;whiteSpace=wrap;html=1;fontSize=28;align=center;fillColor=#B2C9AB;strokeColor=#788AA3;fontColor=#46495D;" vertex="1" parent="1">
          <mxGeometry x="630" y="280" width="230" height="60" as="geometry" />
        </mxCell>
        <mxCell id="cU6pWU8BuP6V0g1TmE-s-5" value="Navbar" style="rounded=0;whiteSpace=wrap;html=1;fontSize=28;align=center;fillColor=#B2C9AB;strokeColor=#788AA3;fontColor=#46495D;" vertex="1" parent="1">
          <mxGeometry x="290" y="500" width="160" height="60" as="geometry" />
        </mxCell>
        <mxCell id="cU6pWU8BuP6V0g1TmE-s-6" value="Card Grid" style="rounded=0;whiteSpace=wrap;html=1;fontSize=28;align=center;fillColor=#B2C9AB;strokeColor=#788AA3;fontColor=#46495D;" vertex="1" parent="1">
          <mxGeometry x="665" y="500" width="160" height="60" as="geometry" />
        </mxCell>
        <mxCell id="cU6pWU8BuP6V0g1TmE-s-7" value="Footer" style="rounded=0;whiteSpace=wrap;html=1;fontSize=28;align=center;fillColor=#B2C9AB;strokeColor=#788AA3;fontColor=#46495D;" vertex="1" parent="1">
          <mxGeometry x="1030" y="500" width="160" height="60" as="geometry" />
        </mxCell>
        <mxCell id="cU6pWU8BuP6V0g1TmE-s-8" value="&lt;i&gt;Component Hierarchy&lt;/i&gt;" style="text;html=1;strokeColor=none;fillColor=none;align=center;verticalAlign=middle;whiteSpace=wrap;rounded=0;fontSize=28;fontColor=#46495D;" vertex="1" parent="1">
          <mxGeometry x="590" y="60" width="345" height="20" as="geometry" />
        </mxCell>
        <mxCell id="cU6pWU8BuP6V0g1TmE-s-9" value="Login Context" style="rounded=0;whiteSpace=wrap;html=1;fontSize=28;align=center;fillColor=#B2C9AB;strokeColor=#788AA3;fontColor=#46495D;" vertex="1" parent="1">
          <mxGeometry x="1080" y="140" width="240" height="60" as="geometry" />
        </mxCell>
        <mxCell id="cU6pWU8BuP6V0g1TmE-s-13" value="Browser Router" style="rounded=0;whiteSpace=wrap;html=1;fontSize=28;align=center;fillColor=#B2C9AB;strokeColor=#788AA3;fontColor=#46495D;" vertex="1" parent="1">
          <mxGeometry x="250" y="140" width="230" height="60" as="geometry" />
        </mxCell>
      </root>
    </mxGraphModel>
  </diagram>
  <diagram name="Login Component" id="WiX_2_VYkVl2DsAc1fvP">
    <mxGraphModel dx="1422" dy="754" grid="1" gridSize="10" guides="1" tooltips="1" connect="1" arrows="1" fold="1" page="1" pageScale="1" pageWidth="827" pageHeight="1169" math="0" shadow="0">
      <root>
        <mxCell id="4cxm4zzh0Up9NVb2VQ3z-0" />
        <mxCell id="4cxm4zzh0Up9NVb2VQ3z-1" parent="4cxm4zzh0Up9NVb2VQ3z-0" />
        <mxCell id="RreYutTZz_k_CRLpoeJg-0" style="edgeStyle=orthogonalEdgeStyle;rounded=0;html=1;exitX=0.5;exitY=1;jettySize=auto;orthogonalLoop=1;fontSize=28;strokeWidth=2;strokeColor=#788AA3;fontColor=#46495D;" edge="1" parent="4cxm4zzh0Up9NVb2VQ3z-1" target="RreYutTZz_k_CRLpoeJg-5">
          <mxGeometry relative="1" as="geometry">
            <mxPoint x="735" y="300" as="sourcePoint" />
          </mxGeometry>
        </mxCell>
        <mxCell id="RreYutTZz_k_CRLpoeJg-1" style="edgeStyle=orthogonalEdgeStyle;rounded=0;html=1;exitX=0.5;exitY=1;jettySize=auto;orthogonalLoop=1;strokeWidth=2;fontSize=28;exitDx=0;exitDy=0;entryX=0.5;entryY=0;entryDx=0;entryDy=0;strokeColor=#788AA3;fontColor=#46495D;" edge="1" parent="4cxm4zzh0Up9NVb2VQ3z-1" source="RreYutTZz_k_CRLpoeJg-4" target="RreYutTZz_k_CRLpoeJg-7">
          <mxGeometry relative="1" as="geometry">
            <mxPoint x="735" y="300" as="sourcePoint" />
            <mxPoint x="360" y="380" as="targetPoint" />
            <Array as="points">
              <mxPoint x="760" y="220" />
              <mxPoint x="760" y="300" />
              <mxPoint x="550" y="300" />
            </Array>
          </mxGeometry>
        </mxCell>
        <mxCell id="RreYutTZz_k_CRLpoeJg-9" style="edgeStyle=orthogonalEdgeStyle;rounded=0;orthogonalLoop=1;jettySize=auto;html=1;shape=flexArrow;strokeColor=#788AA3;fontColor=#46495D;" edge="1" parent="4cxm4zzh0Up9NVb2VQ3z-1" source="RreYutTZz_k_CRLpoeJg-4" target="RreYutTZz_k_CRLpoeJg-8">
          <mxGeometry relative="1" as="geometry" />
        </mxCell>
        <mxCell id="RreYutTZz_k_CRLpoeJg-4" value="Login Component" style="rounded=0;whiteSpace=wrap;html=1;fontSize=28;align=center;fillColor=#B2C9AB;strokeColor=#788AA3;fontColor=#46495D;" vertex="1" parent="4cxm4zzh0Up9NVb2VQ3z-1">
          <mxGeometry x="650" y="160" width="230" height="60" as="geometry" />
        </mxCell>
        <mxCell id="RreYutTZz_k_CRLpoeJg-5" value="Form Component" style="rounded=0;whiteSpace=wrap;html=1;fontSize=28;align=center;fillColor=#B2C9AB;strokeColor=#788AA3;fontColor=#46495D;" vertex="1" parent="4cxm4zzh0Up9NVb2VQ3z-1">
          <mxGeometry x="910" y="380" width="160" height="60" as="geometry" />
        </mxCell>
        <mxCell id="RreYutTZz_k_CRLpoeJg-7" value="Button Component" style="rounded=0;whiteSpace=wrap;html=1;fontSize=28;align=center;fillColor=#B2C9AB;strokeColor=#788AA3;fontColor=#46495D;" vertex="1" parent="4cxm4zzh0Up9NVb2VQ3z-1">
          <mxGeometry x="470" y="380" width="160" height="60" as="geometry" />
        </mxCell>
        <mxCell id="RreYutTZz_k_CRLpoeJg-8" value="Updates Login Context&lt;br&gt;" style="rounded=0;whiteSpace=wrap;html=1;fontSize=28;align=center;fillColor=#B2C9AB;strokeColor=#788AA3;fontColor=#46495D;" vertex="1" parent="4cxm4zzh0Up9NVb2VQ3z-1">
          <mxGeometry x="1070" y="160" width="230" height="60" as="geometry" />
        </mxCell>
      </root>
    </mxGraphModel>
  </diagram>
  <diagram name="Navbar Tree" id="ZJlQbVePFXzW6kl6btvh">
    <mxGraphModel dx="1422" dy="754" grid="1" gridSize="10" guides="1" tooltips="1" connect="1" arrows="1" fold="1" page="1" pageScale="1" pageWidth="827" pageHeight="1169" math="0" shadow="0">
      <root>
        <mxCell id="A4hFYFQdtThw41aiZ-6s-0" />
        <mxCell id="A4hFYFQdtThw41aiZ-6s-1" parent="A4hFYFQdtThw41aiZ-6s-0" />
        <mxCell id="shudj_cxmvkeFQIbuacp-0" style="edgeStyle=orthogonalEdgeStyle;rounded=0;html=1;exitX=0.5;exitY=1;jettySize=auto;orthogonalLoop=1;fontSize=28;strokeWidth=2;strokeColor=#788AA3;fontColor=#46495D;" edge="1" parent="A4hFYFQdtThw41aiZ-6s-1" target="shudj_cxmvkeFQIbuacp-4">
          <mxGeometry relative="1" as="geometry">
            <mxPoint x="735" y="300" as="sourcePoint" />
          </mxGeometry>
        </mxCell>
        <mxCell id="shudj_cxmvkeFQIbuacp-1" style="edgeStyle=orthogonalEdgeStyle;rounded=0;html=1;exitX=0.5;exitY=1;jettySize=auto;orthogonalLoop=1;strokeWidth=2;fontSize=28;exitDx=0;exitDy=0;entryX=0.5;entryY=0;entryDx=0;entryDy=0;strokeColor=#788AA3;fontColor=#46495D;" edge="1" parent="A4hFYFQdtThw41aiZ-6s-1" source="shudj_cxmvkeFQIbuacp-3" target="shudj_cxmvkeFQIbuacp-5">
          <mxGeometry relative="1" as="geometry">
            <mxPoint x="735" y="300" as="sourcePoint" />
            <mxPoint x="360" y="380" as="targetPoint" />
            <Array as="points">
              <mxPoint x="760" y="220" />
              <mxPoint x="760" y="300" />
              <mxPoint x="550" y="300" />
            </Array>
          </mxGeometry>
        </mxCell>
        <mxCell id="shudj_cxmvkeFQIbuacp-3" value="Navbar Component" style="rounded=0;whiteSpace=wrap;html=1;fontSize=28;align=center;fillColor=#B2C9AB;strokeColor=#788AA3;fontColor=#46495D;" vertex="1" parent="A4hFYFQdtThw41aiZ-6s-1">
          <mxGeometry x="650" y="160" width="230" height="60" as="geometry" />
        </mxCell>
        <mxCell id="shudj_cxmvkeFQIbuacp-7" style="edgeStyle=orthogonalEdgeStyle;rounded=0;orthogonalLoop=1;jettySize=auto;html=1;entryX=0.5;entryY=0;entryDx=0;entryDy=0;strokeWidth=2;strokeColor=#788AA3;fontColor=#46495D;" edge="1" parent="A4hFYFQdtThw41aiZ-6s-1" source="shudj_cxmvkeFQIbuacp-4" target="shudj_cxmvkeFQIbuacp-6">
          <mxGeometry relative="1" as="geometry" />
        </mxCell>
        <mxCell id="shudj_cxmvkeFQIbuacp-4" value="Hamburger Component" style="rounded=0;whiteSpace=wrap;html=1;fontSize=28;align=center;fillColor=#B2C9AB;strokeColor=#788AA3;fontColor=#46495D;" vertex="1" parent="A4hFYFQdtThw41aiZ-6s-1">
          <mxGeometry x="910" y="380" width="160" height="60" as="geometry" />
        </mxCell>
        <mxCell id="shudj_cxmvkeFQIbuacp-5" value="Button Component" style="rounded=0;whiteSpace=wrap;html=1;fontSize=28;align=center;fillColor=#B2C9AB;strokeColor=#788AA3;fontColor=#46495D;" vertex="1" parent="A4hFYFQdtThw41aiZ-6s-1">
          <mxGeometry x="470" y="380" width="160" height="60" as="geometry" />
        </mxCell>
        <mxCell id="shudj_cxmvkeFQIbuacp-6" value="Link Component" style="rounded=0;whiteSpace=wrap;html=1;fontSize=28;align=center;fillColor=#B2C9AB;strokeColor=#788AA3;fontColor=#46495D;" vertex="1" parent="A4hFYFQdtThw41aiZ-6s-1">
          <mxGeometry x="910" y="570" width="160" height="60" as="geometry" />
        </mxCell>
      </root>
    </mxGraphModel>
  </diagram>
  <diagram name="Search Tree" id="bKfig4rRmTpaA8GGpbJE">
    <mxGraphModel dx="1422" dy="754" grid="1" gridSize="10" guides="1" tooltips="1" connect="1" arrows="1" fold="1" page="1" pageScale="1" pageWidth="827" pageHeight="1169" math="0" shadow="0">
      <root>
        <mxCell id="-mfuQ2gg1epHu_yLqydC-0" />
        <mxCell id="-mfuQ2gg1epHu_yLqydC-1" parent="-mfuQ2gg1epHu_yLqydC-0" />
        <mxCell id="yMbagNrxrqL4DiVTUL6X-0" style="edgeStyle=orthogonalEdgeStyle;curved=0;rounded=1;sketch=0;orthogonalLoop=1;jettySize=auto;html=1;entryX=0.431;entryY=-0.05;entryDx=0;entryDy=0;entryPerimeter=0;fontColor=#46495D;strokeColor=#788AA3;fillColor=#B2C9AB;strokeWidth=2;" edge="1" parent="-mfuQ2gg1epHu_yLqydC-1" source="-mfuQ2gg1epHu_yLqydC-4" target="-mfuQ2gg1epHu_yLqydC-6">
          <mxGeometry relative="1" as="geometry" />
        </mxCell>
        <mxCell id="-mfuQ2gg1epHu_yLqydC-4" value="SearchBar Component" style="rounded=0;whiteSpace=wrap;html=1;fontSize=28;align=center;fillColor=#B2C9AB;strokeColor=#788AA3;fontColor=#46495D;" vertex="1" parent="-mfuQ2gg1epHu_yLqydC-1">
          <mxGeometry x="560" y="150" width="230" height="60" as="geometry" />
        </mxCell>
        <mxCell id="-mfuQ2gg1epHu_yLqydC-5" style="edgeStyle=orthogonalEdgeStyle;rounded=0;orthogonalLoop=1;jettySize=auto;html=1;entryX=0.5;entryY=0;entryDx=0;entryDy=0;strokeWidth=2;strokeColor=#788AA3;fontColor=#46495D;" edge="1" parent="-mfuQ2gg1epHu_yLqydC-1" source="-mfuQ2gg1epHu_yLqydC-6" target="-mfuQ2gg1epHu_yLqydC-8">
          <mxGeometry relative="1" as="geometry" />
        </mxCell>
        <mxCell id="-mfuQ2gg1epHu_yLqydC-6" value="Card Grid" style="rounded=0;whiteSpace=wrap;html=1;fontSize=28;align=center;fillColor=#B2C9AB;strokeColor=#788AA3;fontColor=#46495D;" vertex="1" parent="-mfuQ2gg1epHu_yLqydC-1">
          <mxGeometry x="700" y="360" width="160" height="60" as="geometry" />
        </mxCell>
        <mxCell id="-mfuQ2gg1epHu_yLqydC-8" value="Recipe Cards" style="rounded=0;whiteSpace=wrap;html=1;fontSize=28;align=center;fillColor=#B2C9AB;strokeColor=#788AA3;fontColor=#46495D;" vertex="1" parent="-mfuQ2gg1epHu_yLqydC-1">
          <mxGeometry x="700" y="550" width="160" height="60" as="geometry" />
        </mxCell>
        <mxCell id="yMbagNrxrqL4DiVTUL6X-1" value="results array" style="rounded=0;whiteSpace=wrap;html=1;fontSize=14;align=center;fontStyle=2;fillColor=#f5f5f5;strokeColor=#666666;fontColor=#333333;" vertex="1" parent="-mfuQ2gg1epHu_yLqydC-1">
          <mxGeometry x="700" y="290" width="120" height="40" as="geometry" />
        </mxCell>
        <mxCell id="yMbagNrxrqL4DiVTUL6X-2" value="" style="shape=curlyBracket;whiteSpace=wrap;html=1;rounded=1;fontSize=14;align=center;" vertex="1" parent="-mfuQ2gg1epHu_yLqydC-1">
          <mxGeometry x="670" y="290" width="20" height="40" as="geometry" />
        </mxCell>
        <mxCell id="yMbagNrxrqL4DiVTUL6X-3" value="&lt;b style=&quot;font-size: 17px;&quot;&gt;Props&lt;/b&gt;" style="text;html=1;strokeColor=none;fillColor=none;align=center;verticalAlign=middle;whiteSpace=wrap;rounded=0;fontSize=17;" vertex="1" parent="-mfuQ2gg1epHu_yLqydC-1">
          <mxGeometry x="620" y="300" width="40" height="20" as="geometry" />
        </mxCell>
      </root>
    </mxGraphModel>
  </diagram>
</mxfile>
